<svg width="92" height="88" viewBox="0 0 92 88" fill="none" xmlns="http://www.w3.org/2000/svg">
<path d="M18.3142 34.7947C20.7962 45.7994 23.2393 56.612 25.7084 67.5612H26.7393C41.805 67.5612 56.8664 67.5612 71.9321 67.574C72.5819 67.574 72.9501 67.4416 73.236 66.784C77.7063 56.3984 82.2113 46.03 86.7032 35.653C86.8029 35.4267 86.8678 35.1876 87.0021 34.799C85.4297 34.799 83.9569 34.799 82.4842 34.799C81.9037 34.799 81.3189 34.8246 80.7385 34.7734C79.8202 34.6922 79.1921 34.0346 79.2007 33.2318C79.2094 32.446 79.8721 31.7414 80.7601 31.6902C81.7261 31.6346 82.7007 31.6731 83.6667 31.6688C85.4774 31.6688 87.288 31.6517 89.0987 31.6731C90.7014 31.6902 91.3858 32.7193 90.7577 34.1712C85.6853 45.8976 80.5955 57.6112 75.5404 69.3419C75.1029 70.3583 74.4142 70.67 73.3529 70.67C58.0923 70.6529 42.836 70.6572 27.5754 70.6572C27.2202 70.6572 26.8693 70.6572 26.3928 70.6572C27.0642 73.6293 27.7183 76.5246 28.4027 79.5651L31.9071 79.5481C31.8941 80.9701 31.8811 81.5124 32.5005 82.6953C29.3947 82.6953 27.9002 82.6953 27.8049 82.6953C26.1935 82.6953 25.7864 82.3494 25.4355 80.795C21.6019 63.7691 17.7597 46.7474 13.9521 29.7172C13.7615 28.8717 13.3977 28.6924 12.6006 28.7052C9.49913 28.7479 6.39329 28.7265 3.29178 28.718C2.90626 28.718 2.51208 28.7009 2.14388 28.607C1.42048 28.4191 1.0133 27.9237 1.00031 27.155C0.987313 26.3864 1.38583 25.8825 2.11789 25.6732C2.45143 25.5793 2.8153 25.5622 3.16616 25.5622C6.91743 25.5537 10.6644 25.5537 14.4156 25.5622C15.9014 25.5622 16.3692 25.9423 16.6768 27.3643C16.9323 28.5429 17.4262 30.9087 17.4262 30.9087L18.3142 34.7947Z" fill="white" stroke="white" stroke-width="0.2"/>
<path d="M50.2863 79.9492C50.295 83.8523 47.2065 86.9227 43.2559 86.9355C39.3401 86.944 36.1476 83.8181 36.1563 79.9833C36.1606 76.2126 39.3487 73.044 43.178 73.0056C47.0765 72.9629 50.2776 76.093 50.2863 79.9534V79.9492ZM43.2473 76.1443C41.0684 76.1443 39.3747 77.7884 39.3574 79.9321C39.3357 82.0971 41.0728 83.848 43.2473 83.8608C45.3265 83.8693 47.1502 82.0971 47.1805 80.0346C47.2108 77.9037 45.4435 76.1528 43.2516 76.1485L43.2473 76.1443Z" fill="white" stroke="white" stroke-width="0.2"/>
<path d="M69.9196 80.0308C69.9282 83.9297 66.8181 87.0043 62.8719 87C58.9517 87 55.7722 83.8699 55.7852 80.0308C55.8025 76.2601 59.008 73.0872 62.8242 73.0659C66.7358 73.0488 69.9109 76.1661 69.9152 80.0308H69.9196ZM58.9863 80.0009C58.969 82.166 60.7017 83.9126 62.8805 83.9254C64.9598 83.9339 66.7834 82.1575 66.8094 80.0991C66.8354 77.964 65.0681 76.2174 62.8762 76.2131C60.7017 76.2131 59.0037 77.8657 58.9863 80.0009Z" fill="white" stroke="white" stroke-width="0.2"/>
<path d="M48.8896 39.1036C48.7033 39.1292 48.5604 38.9413 48.647 38.7748C49.4874 37.1222 52.4676 30.2981 50.501 20.1603C48.2832 8.73708 58.2981 3.53152 62.097 0.0597184C62.227 -0.0598516 62.4349 0.0042038 62.4782 0.170748C63.037 2.25041 65.6403 12.6957 65.0036 24.4477C64.3625 36.2681 51.48 38.7235 48.8896 39.0993V39.1036Z" fill="white"/>
<path d="M48.008 38.9457C48.4282 37.1564 51.664 20.9888 31.0623 21.1426C30.9367 21.1426 30.8371 21.2451 30.8327 21.3646C30.8111 23.4827 31.1706 40.1329 47.8001 39.1165C47.8997 39.1122 47.9863 39.0439 48.008 38.9457Z" fill="white"/>
<path d="M49.8158 42.1613C38.3627 42.1613 29.0495 51.3468 28.8243 62.7657C28.82 62.9963 29.0106 63.1842 29.2445 63.1842H70.3871C70.621 63.1842 70.8116 62.9963 70.8072 62.7657C70.5863 51.3511 61.2732 42.1613 49.8158 42.1613Z" fill="white"/>
</svg>
